<?xml version="1.0" encoding="UTF-8" standalone="no"?>
<!-- Created with Inkscape (http://www.inkscape.org/) -->

<svg
   xmlns:dc="http://purl.org/dc/elements/1.1/"
   xmlns:cc="http://creativecommons.org/ns#"
   xmlns:rdf="http://www.w3.org/1999/02/22-rdf-syntax-ns#"
   xmlns:svg="http://www.w3.org/2000/svg"
   xmlns="http://www.w3.org/2000/svg"
   xmlns:sodipodi="http://sodipodi.sourceforge.net/DTD/sodipodi-0.dtd"
   xmlns:inkscape="http://www.inkscape.org/namespaces/inkscape"
   width="200"
   height="200"
   viewBox="0 0 52.916666 52.916666"
   version="1.1"
   id="svg150"
   inkscape:version="0.92.3 (2405546, 2018-03-11)"
   sodipodi:docname="evQueue_favicon.svg">
  <defs
     id="defs144" />
  <sodipodi:namedview
     id="base"
     pagecolor="#ffffff"
     bordercolor="#666666"
     borderopacity="1.0"
     inkscape:pageopacity="0.0"
     inkscape:pageshadow="2"
     inkscape:zoom="2"
     inkscape:cx="89.823656"
     inkscape:cy="165.84306"
     inkscape:document-units="mm"
     inkscape:current-layer="layer1"
     showgrid="false"
     units="px"
     inkscape:window-width="1853"
     inkscape:window-height="1025"
     inkscape:window-x="67"
     inkscape:window-y="27"
     inkscape:window-maximized="1" />
  <metadata
     id="metadata147">
    <rdf:RDF>
      <cc:Work
         rdf:about="">
        <dc:format>image/svg+xml</dc:format>
        <dc:type
           rdf:resource="http://purl.org/dc/dcmitype/StillImage" />
        <dc:title></dc:title>
      </cc:Work>
    </rdf:RDF>
  </metadata>
  <g
     inkscape:label="Calque 1"
     inkscape:groupmode="layer"
     id="layer1"
     transform="translate(0,-244.08333)">
    <g
       id="g104"
       transform="matrix(1.5702452,0,0,1.5702452,-164.7453,-7.379593)">
      <path
         sodipodi:open="true"
         sodipodi:end="5.9733357"
         sodipodi:start="5.9766385"
         d="m 123.61567,172.11254 a 4.4393921,5.7331581 0 0 1 -2.88927,7.19454 4.4393921,5.7331581 0 0 1 -5.57338,-3.72535 4.4393921,5.7331581 0 0 1 2.88007,-7.20069 4.4393921,5.7331581 0 0 1 5.57814,3.71345"
         sodipodi:ry="5.7331581"
         sodipodi:rx="4.4393921"
         sodipodi:cy="173.84262"
         sodipodi:cx="119.38324"
         id="path3077"
         style="opacity:0;fill:#6f916f;fill-opacity:1;stroke:#6f916f;stroke-width:0.26458332;stroke-linecap:round;stroke-linejoin:round;stroke-miterlimit:4;stroke-dasharray:none;stroke-opacity:1"
         sodipodi:type="arc" />
      <path
         sodipodi:open="true"
         sodipodi:end="5.9733357"
         sodipodi:start="5.9766385"
         d="m 112.19548,170.73395 a 3.450042,4.9213834 0 0 1 -2.24538,6.17585 3.450042,4.9213834 0 0 1 -4.33131,-3.19787 3.450042,4.9213834 0 0 1 2.23823,-6.18112 3.450042,4.9213834 0 0 1 4.335,3.18765"
         sodipodi:ry="4.9213834"
         sodipodi:rx="3.450042"
         sodipodi:cy="172.21907"
         sodipodi:cx="108.90627"
         id="path3849"
         style="opacity:0;fill:#6f916f;fill-opacity:1;stroke:#000000;stroke-width:0.26458332;stroke-linecap:round;stroke-linejoin:round;stroke-miterlimit:4;stroke-dasharray:none;stroke-opacity:0.94117647"
         sodipodi:type="arc" />
      <path
         sodipodi:nodetypes="cccccccccccccc"
         inkscape:connector-curvature="0"
         id="path3861"
         d="m 134.27423,193.42668 -11.77073,-11.8722 c -2.27355,0.35804 -4.37268,-0.156 -6.24052,-1.82647 -1.70825,-2.30852 -1.73321,-4.33647 -1.01472,-6.24054 l 3.55151,3.75446 c 0.35516,0.23286 0.71031,0.171 1.06546,0 l 2.13091,-2.08018 c 0.23581,-0.35512 -0.0638,-0.7103 -0.20295,-1.06545 l -3.65298,-3.75444 c 1.66985,-0.64553 3.5783,-0.74573 6.18978,0.76102 1.82994,1.44558 2.53563,3.6271 1.92796,6.69714 l 11.66926,11.36486 c 0.31428,1.39001 0.22641,2.55021 -0.40589,3.39931 -1.08236,0.99446 -2.16473,0.74369 -3.24709,0.86249 z"
         style="fill:#4993ce;fill-opacity:1;stroke:#000000;stroke-width:0.79374999;stroke-linecap:butt;stroke-linejoin:miter;stroke-miterlimit:4;stroke-dasharray:none;stroke-opacity:1" />
      <path
         sodipodi:open="true"
         sodipodi:end="5.9733357"
         sodipodi:start="5.9766385"
         d="m 136.72276,190.38321 a 1.2670436,1.2670456 0 0 1 -0.82462,1.59002 1.2670436,1.2670456 0 0 1 -1.5907,-0.82332 1.2670436,1.2670456 0 0 1 0.822,-1.59137 1.2670436,1.2670456 0 0 1 1.59205,0.82068"
         sodipodi:ry="1.2670456"
         sodipodi:rx="1.2670436"
         sodipodi:cy="190.76556"
         sodipodi:cx="135.51479"
         id="path3867"
         style="fill:#ffffff;fill-opacity:1;stroke:#000000;stroke-width:0.79374999;stroke-linecap:round;stroke-linejoin:bevel;stroke-miterlimit:4;stroke-dasharray:none;stroke-opacity:1"
         sodipodi:type="arc" />
      <path
         sodipodi:nodetypes="cccssccccccccccccccccccccccccc"
         inkscape:connector-curvature="0"
         id="path3871"
         d="m 129.1373,172.73441 c 0.61336,1.91027 0.53123,3.87353 -0.10653,5.62417 m 0.0976,-5.65187 c -1.49983,-4.61807 -6.50649,-7.17 -11.19603,-5.70674 -4.70051,1.46668 -7.30491,6.41204 -5.81708,11.04577 1.42225,4.42952 6.06913,6.97082 10.58198,5.90502 l 2.2047,2.45555 c -1.35081,-0.42117 -2.32268,1.6207 -3.30057,3.62344 l -2.5113,0.14351 c -0.86434,-1.22248 -0.74654,-2.65541 -2.7983,-3.62344 -2.64603,-1.65066 -3.49802,0.0108 -5.0226,0.4305 l -2.43955,-2.26018 c 1.87868,-3.9298 0.58209,-4.32099 0.14351,-5.66835 -0.3136,-1.23703 -2.40629,-1.66539 -3.65933,-2.47542 v -2.72655 c 2.46911,-0.90467 3.88077,-2.06111 4.34096,-3.44409 0.55549,-1.15419 0.008,-2.67594 -0.86101,-4.30507 l 2.69067,-2.54718 c 1.05407,1.0204 2.37063,1.54206 4.37684,0.75339 1.97593,-0.64132 2.51103,-2.189 2.79831,-3.76695 h 3.08531 c 0.48042,1.34594 0.85041,2.76551 2.43954,3.37232 2.22269,1.33323 3.72952,0.60838 5.20198,-0.21526 l 2.43955,2.2243 c -0.61061,1.54602 -1.45321,3.03742 -0.50226,4.95086 1.11214,2.03303 2.47837,2.16032 3.76695,2.87004 l 0.10763,3.12119 c -0.99035,0.41825 -2.17055,0.52009 -2.90594,1.36329 -0.89521,0.70919 -0.99459,1.5321 -1.25564,2.3319 l -2.0059,-2.19998"
         style="fill:#4993ce;fill-opacity:1;stroke:#000000;stroke-width:0.79374999;stroke-linecap:round;stroke-linejoin:bevel;stroke-miterlimit:4;stroke-dasharray:none;stroke-opacity:1" />
    </g>
  </g>
</svg>
